<?xml version="1.0" encoding="UTF-8"?>
<svg xmlns="http://www.w3.org/2000/svg" xmlns:xlink="http://www.w3.org/1999/xlink" width="32px" height="30px" viewBox="0 0 31 30" version="1.1">
<g id="surface1">
<path style=" stroke:none;fill-rule:nonzero;fill:rgb(94.509804%,47.058824%,40.392157%);fill-opacity:1;" d="M 31.03125 15.023438 C 31.03125 23.320312 24.085938 30.042969 15.515625 30.042969 C 6.945312 30.042969 0 23.320312 0 15.023438 C 0 6.726562 6.945312 0 15.515625 0 C 24.085938 0 31.03125 6.726562 31.03125 15.023438 Z M 31.03125 15.023438 "/>
<path style=" stroke:none;fill-rule:nonzero;fill:rgb(100%,79.607843%,76.862745%);fill-opacity:1;" d="M 29.914062 15.023438 C 29.914062 22.796875 23.46875 29.097656 15.515625 29.097656 C 7.5625 29.097656 1.117188 22.796875 1.117188 15.023438 C 1.117188 7.246094 7.5625 0.945312 15.515625 0.945312 C 23.46875 0.945312 29.914062 7.246094 29.914062 15.023438 Z M 29.914062 15.023438 "/>
<path style=" stroke:none;fill-rule:nonzero;fill:rgb(98.823529%,54.509804%,50.980392%);fill-opacity:1;" d="M 13.617188 3.109375 C 12.882812 4.007812 11.53125 6.277344 11.53125 6.277344 C 11.53125 6.277344 11.691406 5.074219 12.324219 3.339844 C 12.953125 1.609375 14.148438 0.84375 14.148438 0.84375 L 16.285156 0.84375 C 16.285156 0.84375 14.449219 2.09375 13.617188 3.109375 C 13.617188 3.109375 14.355469 2.207031 13.617188 3.109375 Z M 13.617188 3.109375 "/>
<path style=" stroke:none;fill-rule:nonzero;fill:rgb(76.470588%,2.745098%,4.313725%);fill-opacity:1;" d="M 5.835938 13.003906 C 5.835938 12.085938 6.566406 11.34375 7.464844 11.34375 C 8.363281 11.34375 9.09375 12.085938 9.09375 13.003906 C 9.09375 13.917969 8.363281 14.664062 7.464844 14.664062 C 6.566406 14.664062 5.835938 13.917969 5.835938 13.003906 Z M 5.835938 13.003906 "/>
<path style=" stroke:none;fill-rule:nonzero;fill:rgb(76.470588%,2.745098%,4.313725%);fill-opacity:1;" d="M 18.65625 13.027344 C 18.65625 12.109375 19.386719 11.367188 20.285156 11.367188 C 21.183594 11.367188 21.914062 12.109375 21.914062 13.027344 C 21.914062 13.941406 21.183594 14.6875 20.285156 14.6875 C 19.386719 14.6875 18.65625 13.941406 18.65625 13.027344 Z M 18.65625 13.027344 "/>
<path style=" stroke:none;fill-rule:nonzero;fill:rgb(99.215686%,99.215686%,97.647059%);fill-opacity:1;" d="M 15.394531 15.066406 C 15.394531 15.867188 14.859375 16.519531 14.203125 16.519531 C 13.542969 16.519531 13.007812 15.867188 13.007812 15.066406 C 13.007812 14.265625 13.542969 13.617188 14.203125 13.617188 C 14.859375 13.617188 15.394531 14.265625 15.394531 15.066406 Z M 15.394531 15.066406 "/>
<path style="fill:none;stroke-width:2;stroke-linecap:round;stroke-linejoin:miter;stroke:rgb(70.980392%,9.411765%,8.627451%);stroke-opacity:1;stroke-miterlimit:10;" d="M 229.559453 173.211229 C 229.559453 173.211229 229.035511 175.928416 230.38279 176.454718 C 231.680169 176.956541 234.836293 175.255239 235.859226 175.291958 C 236.769886 175.316437 240.23788 176.944302 241.435461 176.601593 C 243.144508 176.11201 242.483344 173.578416 242.483344 173.578416 " transform="matrix(0.313131,0,0,0.319149,-59.636159,-42.424711)"/>
<path style="fill:none;stroke-width:2;stroke-linecap:round;stroke-linejoin:miter;stroke:rgb(70.980392%,9.411765%,8.627451%);stroke-opacity:1;stroke-miterlimit:10;" d="M 232.703102 176.283364 C 232.703102 176.283364 231.842341 185.254979 235.472507 185.389614 C 239.751363 185.560968 239.090199 176.564875 239.090199 176.564875 " transform="matrix(0.313131,0,0,0.319149,-59.636159,-42.424711)"/>
</g>
</svg>
